<?xml version="1.0" encoding="UTF-8" standalone="no"?>
<!DOCTYPE svg PUBLIC "-//W3C//DTD SVG 1.1//EN"
 "http://www.w3.org/Graphics/SVG/1.1/DTD/svg11.dtd">
<!-- Generated by graphviz version 2.43.0 (0)
 -->
<!-- Title: GoblinMap Pages: 1 -->
<svg width="237pt" height="887pt"
 viewBox="0.00 0.00 237.00 887.00" xmlns="http://www.w3.org/2000/svg" xmlns:xlink="http://www.w3.org/1999/xlink">
<g id="graph0" class="graph" transform="scale(1 1) rotate(0) translate(4 883)">
<title>GoblinMap</title>
<polygon fill="white" stroke="transparent" points="-4,4 -4,-883 233,-883 233,4 -4,4"/>
<g id="clust1" class="cluster">
<title>cluster_high</title>
<polygon fill="none" stroke="black" points="8,-8 8,-421 221,-421 221,-8 8,-8"/>
<text text-anchor="middle" x="114.5" y="-405.8" font-family="Times,serif" font-size="14.00">High Goblin Domains</text>
</g>
<g id="clust2" class="cluster">
<title>cluster_medium</title>
<polygon fill="none" stroke="black" points="13,-429 13,-674 216,-674 216,-429 13,-429"/>
<text text-anchor="middle" x="114.5" y="-658.8" font-family="Times,serif" font-size="14.00">Medium Goblin Domains</text>
</g>
<g id="clust3" class="cluster">
<title>cluster_low</title>
<polygon fill="none" stroke="black" points="32.5,-682 32.5,-871 196.5,-871 196.5,-682 32.5,-682"/>
<text text-anchor="middle" x="114.5" y="-855.8" font-family="Times,serif" font-size="14.00">Low Goblin Domains</text>
</g>
<!-- UIFrontend -->
<g id="node1" class="node">
<title>UIFrontend</title>
<path fill="none" stroke="black" d="M160.5,-390C160.5,-390 68.5,-390 68.5,-390 62.5,-390 56.5,-384 56.5,-378 56.5,-378 56.5,-364 56.5,-364 56.5,-358 62.5,-352 68.5,-352 68.5,-352 160.5,-352 160.5,-352 166.5,-352 172.5,-358 172.5,-364 172.5,-364 172.5,-378 172.5,-378 172.5,-384 166.5,-390 160.5,-390"/>
<text text-anchor="middle" x="114.5" y="-374.8" font-family="Times,serif" font-size="14.00">UI / Frontend</text>
<text text-anchor="middle" x="114.5" y="-359.8" font-family="Times,serif" font-size="14.00">Goblin ~ 0.92</text>
</g>
<!-- CloudOrch -->
<g id="node2" class="node">
<title>CloudOrch</title>
<path fill="none" stroke="black" d="M183,-334C183,-334 46,-334 46,-334 40,-334 34,-328 34,-322 34,-322 34,-308 34,-308 34,-302 40,-296 46,-296 46,-296 183,-296 183,-296 189,-296 195,-302 195,-308 195,-308 195,-322 195,-322 195,-328 189,-334 183,-334"/>
<text text-anchor="middle" x="114.5" y="-318.8" font-family="Times,serif" font-size="14.00">Cloud Orchestration</text>
<text text-anchor="middle" x="114.5" y="-303.8" font-family="Times,serif" font-size="14.00">Goblin ~ 0.95</text>
</g>
<!-- Microservices -->
<g id="node3" class="node">
<title>Microservices</title>
<path fill="none" stroke="black" d="M160.5,-278C160.5,-278 68.5,-278 68.5,-278 62.5,-278 56.5,-272 56.5,-266 56.5,-266 56.5,-252 56.5,-252 56.5,-246 62.5,-240 68.5,-240 68.5,-240 160.5,-240 160.5,-240 166.5,-240 172.5,-246 172.5,-252 172.5,-252 172.5,-266 172.5,-266 172.5,-272 166.5,-278 160.5,-278"/>
<text text-anchor="middle" x="114.5" y="-262.8" font-family="Times,serif" font-size="14.00">Microservices</text>
<text text-anchor="middle" x="114.5" y="-247.8" font-family="Times,serif" font-size="14.00">Goblin ~ 0.97</text>
</g>
<!-- CICD -->
<g id="node4" class="node">
<title>CICD</title>
<path fill="none" stroke="black" d="M160.5,-222C160.5,-222 68.5,-222 68.5,-222 62.5,-222 56.5,-216 56.5,-210 56.5,-210 56.5,-196 56.5,-196 56.5,-190 62.5,-184 68.5,-184 68.5,-184 160.5,-184 160.5,-184 166.5,-184 172.5,-190 172.5,-196 172.5,-196 172.5,-210 172.5,-210 172.5,-216 166.5,-222 160.5,-222"/>
<text text-anchor="middle" x="114.5" y="-206.8" font-family="Times,serif" font-size="14.00">CI/CD</text>
<text text-anchor="middle" x="114.5" y="-191.8" font-family="Times,serif" font-size="14.00">Goblin ~ 0.88</text>
</g>
<!-- ConfigMgmt -->
<g id="node5" class="node">
<title>ConfigMgmt</title>
<path fill="none" stroke="black" d="M160.5,-166C160.5,-166 68.5,-166 68.5,-166 62.5,-166 56.5,-160 56.5,-154 56.5,-154 56.5,-140 56.5,-140 56.5,-134 62.5,-128 68.5,-128 68.5,-128 160.5,-128 160.5,-128 166.5,-128 172.5,-134 172.5,-140 172.5,-140 172.5,-154 172.5,-154 172.5,-160 166.5,-166 160.5,-166"/>
<text text-anchor="middle" x="114.5" y="-150.8" font-family="Times,serif" font-size="14.00">Config Mgmt</text>
<text text-anchor="middle" x="114.5" y="-135.8" font-family="Times,serif" font-size="14.00">Goblin ~ 0.90</text>
</g>
<!-- IAM -->
<g id="node6" class="node">
<title>IAM</title>
<path fill="none" stroke="black" d="M162,-110C162,-110 67,-110 67,-110 61,-110 55,-104 55,-98 55,-98 55,-84 55,-84 55,-78 61,-72 67,-72 67,-72 162,-72 162,-72 168,-72 174,-78 174,-84 174,-84 174,-98 174,-98 174,-104 168,-110 162,-110"/>
<text text-anchor="middle" x="114.5" y="-94.8" font-family="Times,serif" font-size="14.00">IAM / Security</text>
<text text-anchor="middle" x="114.5" y="-79.8" font-family="Times,serif" font-size="14.00">Goblin ~ 0.94</text>
</g>
<!-- Healthcare -->
<g id="node7" class="node">
<title>Healthcare</title>
<path fill="none" stroke="black" d="M189,-643C189,-643 40,-643 40,-643 34,-643 28,-637 28,-631 28,-631 28,-617 28,-617 28,-611 34,-605 40,-605 40,-605 189,-605 189,-605 195,-605 201,-611 201,-617 201,-617 201,-631 201,-631 201,-637 195,-643 189,-643"/>
<text text-anchor="middle" x="114.5" y="-627.8" font-family="Times,serif" font-size="14.00">Healthcare Workflows</text>
<text text-anchor="middle" x="114.5" y="-612.8" font-family="Times,serif" font-size="14.00">Goblin ~ 0.80</text>
</g>
<!-- Finance -->
<g id="node8" class="node">
<title>Finance</title>
<path fill="none" stroke="black" d="M196,-587C196,-587 33,-587 33,-587 27,-587 21,-581 21,-575 21,-575 21,-561 21,-561 21,-555 27,-549 33,-549 33,-549 196,-549 196,-549 202,-549 208,-555 208,-561 208,-561 208,-575 208,-575 208,-581 202,-587 196,-587"/>
<text text-anchor="middle" x="114.5" y="-571.8" font-family="Times,serif" font-size="14.00">Finance / Reconciliation</text>
<text text-anchor="middle" x="114.5" y="-556.8" font-family="Times,serif" font-size="14.00">Goblin ~ 0.75</text>
</g>
<!-- SupplyChain -->
<g id="node9" class="node">
<title>SupplyChain</title>
<path fill="none" stroke="black" d="M160.5,-531C160.5,-531 68.5,-531 68.5,-531 62.5,-531 56.5,-525 56.5,-519 56.5,-519 56.5,-505 56.5,-505 56.5,-499 62.5,-493 68.5,-493 68.5,-493 160.5,-493 160.5,-493 166.5,-493 172.5,-499 172.5,-505 172.5,-505 172.5,-519 172.5,-519 172.5,-525 166.5,-531 160.5,-531"/>
<text text-anchor="middle" x="114.5" y="-515.8" font-family="Times,serif" font-size="14.00">Supply Chain</text>
<text text-anchor="middle" x="114.5" y="-500.8" font-family="Times,serif" font-size="14.00">Goblin ~ 0.85</text>
</g>
<!-- MLPipelines -->
<g id="node10" class="node">
<title>MLPipelines</title>
<path fill="none" stroke="black" d="M181,-475C181,-475 48,-475 48,-475 42,-475 36,-469 36,-463 36,-463 36,-449 36,-449 36,-443 42,-437 48,-437 48,-437 181,-437 181,-437 187,-437 193,-443 193,-449 193,-449 193,-463 193,-463 193,-469 187,-475 181,-475"/>
<text text-anchor="middle" x="114.5" y="-459.8" font-family="Times,serif" font-size="14.00">ML / Data Pipelines</text>
<text text-anchor="middle" x="114.5" y="-444.8" font-family="Times,serif" font-size="14.00">Goblin ~ 0.82</text>
</g>
<!-- Government -->
<g id="node11" class="node">
<title>Government</title>
<path fill="none" stroke="black" d="M201,-54C201,-54 28,-54 28,-54 22,-54 16,-48 16,-42 16,-42 16,-28 16,-28 16,-22 22,-16 28,-16 28,-16 201,-16 201,-16 207,-16 213,-22 213,-28 213,-28 213,-42 213,-42 213,-48 207,-54 201,-54"/>
<text text-anchor="middle" x="114.5" y="-38.8" font-family="Times,serif" font-size="14.00">Government / Regulatory</text>
<text text-anchor="middle" x="114.5" y="-23.8" font-family="Times,serif" font-size="14.00">Goblin ~ 0.90</text>
</g>
<!-- Math -->
<g id="node12" class="node">
<title>Math</title>
<path fill="none" stroke="black" d="M176.5,-840C176.5,-840 52.5,-840 52.5,-840 46.5,-840 40.5,-834 40.5,-828 40.5,-828 40.5,-814 40.5,-814 40.5,-808 46.5,-802 52.5,-802 52.5,-802 176.5,-802 176.5,-802 182.5,-802 188.5,-808 188.5,-814 188.5,-814 188.5,-828 188.5,-828 188.5,-834 182.5,-840 176.5,-840"/>
<text text-anchor="middle" x="114.5" y="-824.8" font-family="Times,serif" font-size="14.00">Pure Mathematics</text>
<text text-anchor="middle" x="114.5" y="-809.8" font-family="Times,serif" font-size="14.00">Goblin ~ 0.00</text>
</g>
<!-- Compiler -->
<g id="node13" class="node">
<title>Compiler</title>
<path fill="none" stroke="black" d="M174.5,-784C174.5,-784 54.5,-784 54.5,-784 48.5,-784 42.5,-778 42.5,-772 42.5,-772 42.5,-758 42.5,-758 42.5,-752 48.5,-746 54.5,-746 54.5,-746 174.5,-746 174.5,-746 180.5,-746 186.5,-752 186.5,-758 186.5,-758 186.5,-772 186.5,-772 186.5,-778 180.5,-784 174.5,-784"/>
<text text-anchor="middle" x="114.5" y="-768.8" font-family="Times,serif" font-size="14.00">Compiler Pipeline</text>
<text text-anchor="middle" x="114.5" y="-753.8" font-family="Times,serif" font-size="14.00">Goblin ~ 0.15</text>
</g>
<!-- CAD -->
<g id="node14" class="node">
<title>CAD</title>
<path fill="none" stroke="black" d="M169.5,-728C169.5,-728 59.5,-728 59.5,-728 53.5,-728 47.5,-722 47.5,-716 47.5,-716 47.5,-702 47.5,-702 47.5,-696 53.5,-690 59.5,-690 59.5,-690 169.5,-690 169.5,-690 175.5,-690 181.5,-696 181.5,-702 181.5,-702 181.5,-716 181.5,-716 181.5,-722 175.5,-728 169.5,-728"/>
<text text-anchor="middle" x="114.5" y="-712.8" font-family="Times,serif" font-size="14.00">Mechanical CAD</text>
<text text-anchor="middle" x="114.5" y="-697.8" font-family="Times,serif" font-size="14.00">Goblin ~ 0.12</text>
</g>
</g>
</svg>
