<?xml version="1.0" encoding="UTF-8" standalone="no"?>
<!DOCTYPE svg PUBLIC "-//W3C//DTD SVG 1.1//EN"
 "http://www.w3.org/Graphics/SVG/1.1/DTD/svg11.dtd">
<!-- Generated by graphviz version 2.42.4 (0)
 -->
<!-- Title: GoblinTTL Pages: 1 -->
<svg width="1450pt" height="550pt"
 viewBox="0.00 0.00 1450.00 550.00" xmlns="http://www.w3.org/2000/svg" xmlns:xlink="http://www.w3.org/1999/xlink">
<g id="graph0" class="graph" transform="scale(1 1) rotate(0) translate(4 546)">
<title>GoblinTTL</title>
<polygon fill="white" stroke="transparent" points="-4,4 -4,-546 1446,-546 1446,4 -4,4"/>
<!-- https://nkllon.com/problem#CICD -->
<g id="node1" class="node">
<title>https://nkllon.com/problem#CICD</title>
<path fill="#ff3d00" stroke="black" d="M1430,-38C1430,-38 1332,-38 1332,-38 1326,-38 1320,-32 1320,-26 1320,-26 1320,-12 1320,-12 1320,-6 1326,0 1332,0 1332,0 1430,0 1430,0 1436,0 1442,-6 1442,-12 1442,-12 1442,-26 1442,-26 1442,-32 1436,-38 1430,-38"/>
<text text-anchor="middle" x="1381" y="-22.8" font-family="Helvetica,sans-Serif" font-size="14.00">CI/CD Pipelines</text>
<text text-anchor="middle" x="1381" y="-7.8" font-family="Helvetica,sans-Serif" font-size="14.00">Goblin ~ 0.88</text>
</g>
<!-- https://nkllon.com/problem#CloudOrchestration -->
<g id="node2" class="node">
<title>https://nkllon.com/problem#CloudOrchestration</title>
<path fill="#ff1900" stroke="black" d="M910,-38C910,-38 678,-38 678,-38 672,-38 666,-32 666,-26 666,-26 666,-12 666,-12 666,-6 672,0 678,0 678,0 910,0 910,0 916,0 922,-6 922,-12 922,-12 922,-26 922,-26 922,-32 916,-38 910,-38"/>
<text text-anchor="middle" x="794" y="-22.8" font-family="Helvetica,sans-Serif" font-size="14.00">Cloud Infrastructure Orchestration</text>
<text text-anchor="middle" x="794" y="-7.8" font-family="Helvetica,sans-Serif" font-size="14.00">Goblin ~ 0.95</text>
</g>
<!-- https://nkllon.com/problem#Microservices -->
<g id="node5" class="node">
<title>https://nkllon.com/problem#Microservices</title>
<path fill="#ff0f00" stroke="black" d="M1211,-38C1211,-38 1043,-38 1043,-38 1037,-38 1031,-32 1031,-26 1031,-26 1031,-12 1031,-12 1031,-6 1037,0 1043,0 1043,0 1211,0 1211,0 1217,0 1223,-6 1223,-12 1223,-12 1223,-26 1223,-26 1223,-32 1217,-38 1211,-38"/>
<text text-anchor="middle" x="1127" y="-22.8" font-family="Helvetica,sans-Serif" font-size="14.00">Distributed Microservices</text>
<text text-anchor="middle" x="1127" y="-7.8" font-family="Helvetica,sans-Serif" font-size="14.00">Goblin ~ 0.97</text>
</g>
<!-- https://nkllon.com/problem#CloudOrchestration&#45;&gt;https://nkllon.com/problem#Microservices -->
<g id="edge1" class="edge">
<title>https://nkllon.com/problem#CloudOrchestration&#45;&gt;https://nkllon.com/problem#Microservices</title>
<path fill="none" stroke="black" d="M922.03,-19C954.68,-19 989.45,-19 1020.86,-19"/>
<polygon fill="black" stroke="black" points="1020.93,-22.5 1030.93,-19 1020.93,-15.5 1020.93,-22.5"/>
<text text-anchor="middle" x="976.5" y="-22.8" font-family="Times,serif" font-size="14.00">influences</text>
</g>
<!-- https://nkllon.com/problem#CompilerPipeline -->
<g id="node3" class="node">
<title>https://nkllon.com/problem#CompilerPipeline</title>
<path fill="#4cff00" stroke="black" d="M189.5,-94C189.5,-94 76.5,-94 76.5,-94 70.5,-94 64.5,-88 64.5,-82 64.5,-82 64.5,-68 64.5,-68 64.5,-62 70.5,-56 76.5,-56 76.5,-56 189.5,-56 189.5,-56 195.5,-56 201.5,-62 201.5,-68 201.5,-68 201.5,-82 201.5,-82 201.5,-88 195.5,-94 189.5,-94"/>
<text text-anchor="middle" x="133" y="-78.8" font-family="Helvetica,sans-Serif" font-size="14.00">Compiler Pipeline</text>
<text text-anchor="middle" x="133" y="-63.8" font-family="Helvetica,sans-Serif" font-size="14.00">Goblin ~ 0.15</text>
</g>
<!-- https://nkllon.com/problem#ConfigManagement -->
<g id="node4" class="node">
<title>https://nkllon.com/problem#ConfigManagement</title>
<path fill="#ff3200" stroke="black" d="M557,-38C557,-38 375,-38 375,-38 369,-38 363,-32 363,-26 363,-26 363,-12 363,-12 363,-6 369,0 375,0 375,0 557,0 557,0 563,0 569,-6 569,-12 569,-12 569,-26 569,-26 569,-32 563,-38 557,-38"/>
<text text-anchor="middle" x="466" y="-22.8" font-family="Helvetica,sans-Serif" font-size="14.00">Configuration Management</text>
<text text-anchor="middle" x="466" y="-7.8" font-family="Helvetica,sans-Serif" font-size="14.00">Goblin ~ 0.90</text>
</g>
<!-- https://nkllon.com/problem#ConfigManagement&#45;&gt;https://nkllon.com/problem#CloudOrchestration -->
<g id="edge2" class="edge">
<title>https://nkllon.com/problem#ConfigManagement&#45;&gt;https://nkllon.com/problem#CloudOrchestration</title>
<path fill="none" stroke="black" stroke-dasharray="1,5" d="M569.25,-19C596.65,-19 626.71,-19 655.67,-19"/>
<polygon fill="black" stroke="black" points="655.86,-22.5 665.86,-19 655.86,-15.5 655.86,-22.5"/>
<text text-anchor="middle" x="617.5" y="-22.8" font-family="Times,serif" font-size="14.00">depends</text>
</g>
<!-- https://nkllon.com/problem#Microservices&#45;&gt;https://nkllon.com/problem#CICD -->
<g id="edge4" class="edge">
<title>https://nkllon.com/problem#Microservices&#45;&gt;https://nkllon.com/problem#CICD</title>
<path fill="none" stroke="black" stroke-dasharray="5,2" d="M1223.27,-19C1251.94,-19 1282.88,-19 1309.63,-19"/>
<polygon fill="black" stroke="black" points="1309.66,-22.5 1319.66,-19 1309.66,-15.5 1309.66,-22.5"/>
<text text-anchor="middle" x="1271.5" y="-22.8" font-family="Times,serif" font-size="14.00">overlaps</text>
</g>
<!-- https://nkllon.com/problem#FinanceReconciliation -->
<g id="node6" class="node">
<title>https://nkllon.com/problem#FinanceReconciliation</title>
<path fill="#ff7f00" stroke="black" d="M209,-150C209,-150 57,-150 57,-150 51,-150 45,-144 45,-138 45,-138 45,-124 45,-124 45,-118 51,-112 57,-112 57,-112 209,-112 209,-112 215,-112 221,-118 221,-124 221,-124 221,-138 221,-138 221,-144 215,-150 209,-150"/>
<text text-anchor="middle" x="133" y="-134.8" font-family="Helvetica,sans-Serif" font-size="14.00">Financial Reconciliation</text>
<text text-anchor="middle" x="133" y="-119.8" font-family="Helvetica,sans-Serif" font-size="14.00">Goblin ~ 0.75</text>
</g>
<!-- https://nkllon.com/problem#GovernmentProcesses -->
<g id="node7" class="node">
<title>https://nkllon.com/problem#GovernmentProcesses</title>
<path fill="#ff3200" stroke="black" d="M252.5,-206C252.5,-206 13.5,-206 13.5,-206 7.5,-206 1.5,-200 1.5,-194 1.5,-194 1.5,-180 1.5,-180 1.5,-174 7.5,-168 13.5,-168 13.5,-168 252.5,-168 252.5,-168 258.5,-168 264.5,-174 264.5,-180 264.5,-180 264.5,-194 264.5,-194 264.5,-200 258.5,-206 252.5,-206"/>
<text text-anchor="middle" x="133" y="-190.8" font-family="Helvetica,sans-Serif" font-size="14.00">Government / Regulatory Processes</text>
<text text-anchor="middle" x="133" y="-175.8" font-family="Helvetica,sans-Serif" font-size="14.00">Goblin ~ 0.90</text>
</g>
<!-- https://nkllon.com/problem#HealthcareWorkflow -->
<g id="node8" class="node">
<title>https://nkllon.com/problem#HealthcareWorkflow</title>
<path fill="#ff6500" stroke="black" d="M204.5,-262C204.5,-262 61.5,-262 61.5,-262 55.5,-262 49.5,-256 49.5,-250 49.5,-250 49.5,-236 49.5,-236 49.5,-230 55.5,-224 61.5,-224 61.5,-224 204.5,-224 204.5,-224 210.5,-224 216.5,-230 216.5,-236 216.5,-236 216.5,-250 216.5,-250 216.5,-256 210.5,-262 204.5,-262"/>
<text text-anchor="middle" x="133" y="-246.8" font-family="Helvetica,sans-Serif" font-size="14.00">Healthcare Workflows</text>
<text text-anchor="middle" x="133" y="-231.8" font-family="Helvetica,sans-Serif" font-size="14.00">Goblin ~ 0.80</text>
</g>
<!-- https://nkllon.com/problem#IAMSecurity -->
<g id="node9" class="node">
<title>https://nkllon.com/problem#IAMSecurity</title>
<path fill="#ff1e00" stroke="black" d="M200,-38C200,-38 66,-38 66,-38 60,-38 54,-32 54,-26 54,-26 54,-12 54,-12 54,-6 60,0 66,0 66,0 200,0 200,0 206,0 212,-6 212,-12 212,-12 212,-26 212,-26 212,-32 206,-38 200,-38"/>
<text text-anchor="middle" x="133" y="-22.8" font-family="Helvetica,sans-Serif" font-size="14.00">IAM / Security Policy</text>
<text text-anchor="middle" x="133" y="-7.8" font-family="Helvetica,sans-Serif" font-size="14.00">Goblin ~ 0.94</text>
</g>
<!-- https://nkllon.com/problem#IAMSecurity&#45;&gt;https://nkllon.com/problem#ConfigManagement -->
<g id="edge3" class="edge">
<title>https://nkllon.com/problem#IAMSecurity&#45;&gt;https://nkllon.com/problem#ConfigManagement</title>
<path fill="none" stroke="black" stroke-dasharray="5,2" d="M212.02,-19C253.96,-19 306.41,-19 352.66,-19"/>
<polygon fill="black" stroke="black" points="352.73,-22.5 362.73,-19 352.73,-15.5 352.73,-22.5"/>
<text text-anchor="middle" x="314.5" y="-22.8" font-family="Times,serif" font-size="14.00">overlaps</text>
</g>
<!-- https://nkllon.com/problem#MLPipelines -->
<g id="node10" class="node">
<title>https://nkllon.com/problem#MLPipelines</title>
<path fill="#ff5b00" stroke="black" d="M195,-318C195,-318 71,-318 71,-318 65,-318 59,-312 59,-306 59,-306 59,-292 59,-292 59,-286 65,-280 71,-280 71,-280 195,-280 195,-280 201,-280 207,-286 207,-292 207,-292 207,-306 207,-306 207,-312 201,-318 195,-318"/>
<text text-anchor="middle" x="133" y="-302.8" font-family="Helvetica,sans-Serif" font-size="14.00">ML / Data Pipelines</text>
<text text-anchor="middle" x="133" y="-287.8" font-family="Helvetica,sans-Serif" font-size="14.00">Goblin ~ 0.82</text>
</g>
<!-- https://nkllon.com/problem#MechanicalCAD -->
<g id="node11" class="node">
<title>https://nkllon.com/problem#MechanicalCAD</title>
<path fill="#3dff00" stroke="black" d="M219,-374C219,-374 47,-374 47,-374 41,-374 35,-368 35,-362 35,-362 35,-348 35,-348 35,-342 41,-336 47,-336 47,-336 219,-336 219,-336 225,-336 231,-342 231,-348 231,-348 231,-362 231,-362 231,-368 225,-374 219,-374"/>
<text text-anchor="middle" x="133" y="-358.8" font-family="Helvetica,sans-Serif" font-size="14.00">Mechanical CAD Modeling</text>
<text text-anchor="middle" x="133" y="-343.8" font-family="Helvetica,sans-Serif" font-size="14.00">Goblin ~ 0.12</text>
</g>
<!-- https://nkllon.com/problem#PureMathematics -->
<g id="node12" class="node">
<title>https://nkllon.com/problem#PureMathematics</title>
<path fill="#00ff00" stroke="black" d="M254,-430C254,-430 12,-430 12,-430 6,-430 0,-424 0,-418 0,-418 0,-404 0,-404 0,-398 6,-392 12,-392 12,-392 254,-392 254,-392 260,-392 266,-398 266,-404 266,-404 266,-418 266,-418 266,-424 260,-430 254,-430"/>
<text text-anchor="middle" x="133" y="-414.8" font-family="Helvetica,sans-Serif" font-size="14.00">Pure Mathematics (Formal Systems)</text>
<text text-anchor="middle" x="133" y="-399.8" font-family="Helvetica,sans-Serif" font-size="14.00">Goblin ~ 0.00</text>
</g>
<!-- https://nkllon.com/problem#SupplyChain -->
<g id="node13" class="node">
<title>https://nkllon.com/problem#SupplyChain</title>
<path fill="#ff4c00" stroke="black" d="M215.5,-486C215.5,-486 50.5,-486 50.5,-486 44.5,-486 38.5,-480 38.5,-474 38.5,-474 38.5,-460 38.5,-460 38.5,-454 44.5,-448 50.5,-448 50.5,-448 215.5,-448 215.5,-448 221.5,-448 227.5,-454 227.5,-460 227.5,-460 227.5,-474 227.5,-474 227.5,-480 221.5,-486 215.5,-486"/>
<text text-anchor="middle" x="133" y="-470.8" font-family="Helvetica,sans-Serif" font-size="14.00">Supply Chain / Inventory</text>
<text text-anchor="middle" x="133" y="-455.8" font-family="Helvetica,sans-Serif" font-size="14.00">Goblin ~ 0.85</text>
</g>
<!-- https://nkllon.com/problem#UIFrontend -->
<g id="node14" class="node">
<title>https://nkllon.com/problem#UIFrontend</title>
<path fill="#ff2800" stroke="black" d="M206,-542C206,-542 60,-542 60,-542 54,-542 48,-536 48,-530 48,-530 48,-516 48,-516 48,-510 54,-504 60,-504 60,-504 206,-504 206,-504 212,-504 218,-510 218,-516 218,-516 218,-530 218,-530 218,-536 212,-542 206,-542"/>
<text text-anchor="middle" x="133" y="-526.8" font-family="Helvetica,sans-Serif" font-size="14.00">UI / Frontend Systems</text>
<text text-anchor="middle" x="133" y="-511.8" font-family="Helvetica,sans-Serif" font-size="14.00">Goblin ~ 0.92</text>
</g>
</g>
</svg>
